ISO-10303-21;
HEADER;
FILE_DESCRIPTION (( 'STEP AP214' ),
    '1' );
FILE_NAME ('block_green_3by3.STEP',
    '2026-05-03T11:37:07',
    ( 'sin9744@naver.com' ),
    ( '' ),
    'SwSTEP 2.0',
    'SolidWorks 2020',
    '' );
FILE_SCHEMA (( 'AUTOMOTIVE_DESIGN' ));
ENDSEC;

DATA;
#1 = CARTESIAN_POINT ( 'NONE',  ( -15.00000000000000711, 15.00000000000000178, 30.00000000000000000 ) ) ;
#2 = VERTEX_POINT ( 'NONE', #155 ) ;
#3 = APPLICATION_PROTOCOL_DEFINITION ( 'draft international standard', 'automotive_design', 1998, #21 ) ;
#4 = ADVANCED_FACE ( 'NONE', ( #172 ), #163, .F. ) ;
#5 = FILL_AREA_STYLE_COLOUR ( '', #68 ) ;
#6 = PRESENTATION_STYLE_ASSIGNMENT (( #27 ) ) ;
#7 = AXIS2_PLACEMENT_3D ( 'NONE', #87, #159, #235 ) ;
#8 = ORIENTED_EDGE ( 'NONE', *, *, #185, .T. ) ;
#9 = DIRECTION ( 'NONE',  ( -0.000000000000000000, 0.000000000000000000, 1.000000000000000000 ) ) ;
#10 = FILL_AREA_STYLE_COLOUR ( '', #177 ) ;
#11 = ORIENTED_EDGE ( 'NONE', *, *, #175, .T. ) ;
#12 =( LENGTH_UNIT ( ) NAMED_UNIT ( * ) SI_UNIT ( .MILLI., .METRE. ) );
#13 = CARTESIAN_POINT ( 'NONE',  ( 0.000000000000000000, 0.000000000000000000, 0.000000000000000000 ) ) ;
#14 = DIRECTION ( 'NONE',  ( -0.000000000000000000, -0.000000000000000000, -1.000000000000000000 ) ) ;
#15 = PLANE ( 'NONE',  #267 ) ;
#16 = LINE ( 'NONE', #121, #101 ) ;
#17 = PLANE ( 'NONE',  #254 ) ;
#18 = EDGE_CURVE ( 'NONE', #234, #26, #221, .T. ) ;
#19 =( GEOMETRIC_REPRESENTATION_CONTEXT ( 3 ) GLOBAL_UNCERTAINTY_ASSIGNED_CONTEXT ( ( #244 ) ) GLOBAL_UNIT_ASSIGNED_CONTEXT ( ( #79, #36, #231 ) ) REPRESENTATION_CONTEXT ( 'NONE', 'WORKASPACE' ) );
#20 = VECTOR ( 'NONE', #83, 1000.000000000000000 ) ;
#21 = APPLICATION_CONTEXT ( 'automotive_design' ) ;
#22 = STYLED_ITEM ( 'NONE', ( #56 ), #168 ) ;
#23 = ORIENTED_EDGE ( 'NONE', *, *, #64, .F. ) ;
#24 = FILL_AREA_STYLE ('',( #10 ) ) ;
#25 = DIRECTION ( 'NONE',  ( -1.156482317317871478E-16, 1.000000000000000000, 0.000000000000000000 ) ) ;
#26 = VERTEX_POINT ( 'NONE', #41 ) ;
#27 = SURFACE_STYLE_USAGE ( .BOTH. , #246 ) ;
#28 =( GEOMETRIC_REPRESENTATION_CONTEXT ( 3 ) GLOBAL_UNCERTAINTY_ASSIGNED_CONTEXT ( ( #47 ) ) GLOBAL_UNIT_ASSIGNED_CONTEXT ( ( #115, #255, #173 ) ) REPRESENTATION_CONTEXT ( 'NONE', 'WORKASPACE' ) );
#29 =( NAMED_UNIT ( * ) PLANE_ANGLE_UNIT ( ) SI_UNIT ( $, .RADIAN. ) );
#30 = ORIENTED_EDGE ( 'NONE', *, *, #266, .T. ) ;
#31 = CARTESIAN_POINT ( 'NONE',  ( 14.99999999999999289, -14.99999999999999822, 30.00000000000000000 ) ) ;
#32 = FILL_AREA_STYLE ('',( #5 ) ) ;
#33 = AXIS2_PLACEMENT_3D ( 'NONE', #211, #9, #111 ) ;
#34 = DIRECTION ( 'NONE',  ( 1.000000000000000000, 0.000000000000000000, 0.000000000000000000 ) ) ;
#35 = LINE ( 'NONE', #252, #48 ) ;
#36 =( NAMED_UNIT ( * ) PLANE_ANGLE_UNIT ( ) SI_UNIT ( $, .RADIAN. ) );
#37 = ORIENTED_EDGE ( 'NONE', *, *, #95, .F. ) ;
#38 = FACE_OUTER_BOUND ( 'NONE', #110, .T. ) ;
#39 = EDGE_CURVE ( 'NONE', #2, #165, #16, .T. ) ;
#40 = UNCERTAINTY_MEASURE_WITH_UNIT (LENGTH_MEASURE( 1.000000000000000082E-05 ), #136, 'distance_accuracy_value', 'NONE');
#41 = CARTESIAN_POINT ( 'NONE',  ( 14.99999999999999289, -14.99999999999999822, 30.00000000000000000 ) ) ;
#42 = DIRECTION ( 'NONE',  ( 0.000000000000000000, -0.000000000000000000, -1.000000000000000000 ) ) ;
#43 = ADVANCED_FACE ( 'NONE', ( #92 ), #58, .F. ) ;
#44 = PRESENTATION_LAYER_ASSIGNMENT (  '', '', ( #289 ) ) ;
#45 = COLOUR_RGB ( '',0.7921568627450980005, 0.8196078431372548767, 0.9333333333333333481 ) ;
#46 =( GEOMETRIC_REPRESENTATION_CONTEXT ( 3 ) GLOBAL_UNCERTAINTY_ASSIGNED_CONTEXT ( ( #99 ) ) GLOBAL_UNIT_ASSIGNED_CONTEXT ( ( #271, #197, #238 ) ) REPRESENTATION_CONTEXT ( 'NONE', 'WORKASPACE' ) );
#47 = UNCERTAINTY_MEASURE_WITH_UNIT (LENGTH_MEASURE( 1.000000000000000082E-05 ), #115, 'distance_accuracy_value', 'NONE');
#48 = VECTOR ( 'NONE', #55, 1000.000000000000000 ) ;
#49 = ORIENTED_EDGE ( 'NONE', *, *, #185, .F. ) ;
#50 = SHAPE_DEFINITION_REPRESENTATION ( #290, #104 ) ;
#51 = DIRECTION ( 'NONE',  ( -1.156482317317871478E-16, 1.000000000000000000, -0.000000000000000000 ) ) ;
#52 = CARTESIAN_POINT ( 'NONE',  ( 0.000000000000000000, 0.000000000000000000, 0.000000000000000000 ) ) ;
#53 = FACE_OUTER_BOUND ( 'NONE', #245, .T. ) ;
#54 = ORIENTED_EDGE ( 'NONE', *, *, #266, .F. ) ;
#55 = DIRECTION ( 'NONE',  ( -1.000000000000000000, -0.000000000000000000, -0.000000000000000000 ) ) ;
#56 = PRESENTATION_STYLE_ASSIGNMENT (( #272 ) ) ;
#57 = VECTOR ( 'NONE', #51, 1000.000000000000000 ) ;
#58 = PLANE ( 'NONE',  #7 ) ;
#59 = FILL_AREA_STYLE ('',( #164 ) ) ;
#60 = APPLICATION_CONTEXT ( 'automotive_design' ) ;
#61 = SURFACE_STYLE_USAGE ( .BOTH. , #62 ) ;
#62 = SURFACE_SIDE_STYLE ('',( #278 ) ) ;
#63 = UNCERTAINTY_MEASURE_WITH_UNIT (LENGTH_MEASURE( 1.000000000000000082E-05 ), #215, 'distance_accuracy_value', 'NONE');
#64 = EDGE_CURVE ( 'NONE', #283, #189, #35, .T. ) ;
#65 = FILL_AREA_STYLE_COLOUR ( '', #148 ) ;
#66 = FILL_AREA_STYLE ('',( #96 ) ) ;
#67 = PRODUCT_DEFINITION ( 'UNKNOWN', '', #88, #71 ) ;
#68 = COLOUR_RGB ( '',0.000000000000000000, 1.000000000000000000, 0.000000000000000000 ) ;
#69 = EDGE_CURVE ( 'NONE', #234, #2, #276, .T. ) ;
#70 = PRESENTATION_LAYER_ASSIGNMENT (  '', '', ( #233 ) ) ;
#71 = PRODUCT_DEFINITION_CONTEXT ( 'detailed design', #60, 'design' ) ;
#72 = ORIENTED_EDGE ( 'NONE', *, *, #126, .F. ) ;
#73 = FILL_AREA_STYLE_COLOUR ( '', #236 ) ;
#74 = SURFACE_STYLE_USAGE ( .BOTH. , #213 ) ;
#75 = STYLED_ITEM ( 'NONE', ( #248 ), #4 ) ;
#76 = DIRECTION ( 'NONE',  ( -1.000000000000000000, -0.000000000000000000, -0.000000000000000000 ) ) ;
#77 = PLANE ( 'NONE',  #119 ) ;
#78 = VERTEX_POINT ( 'NONE', #279 ) ;
#79 =( LENGTH_UNIT ( ) NAMED_UNIT ( * ) SI_UNIT ( .MILLI., .METRE. ) );
#80 = EDGE_CURVE ( 'NONE', #26, #165, #179, .T. ) ;
#81 = SURFACE_SIDE_STYLE ('',( #107 ) ) ;
#82 = SURFACE_STYLE_FILL_AREA ( #137 ) ;
#83 = DIRECTION ( 'NONE',  ( -0.000000000000000000, -0.000000000000000000, -1.000000000000000000 ) ) ;
#84 = PRODUCT_CONTEXT ( 'NONE', #21, 'mechanical' ) ;
#85 = DIRECTION ( 'NONE',  ( -0.000000000000000000, 0.000000000000000000, 1.000000000000000000 ) ) ;
#86 = PRESENTATION_LAYER_ASSIGNMENT (  '', '', ( #22 ) ) ;
#87 = CARTESIAN_POINT ( 'NONE',  ( 14.99999999999998934, 15.00000000000000178, 30.00000000000000000 ) ) ;
#88 = PRODUCT_DEFINITION_FORMATION_WITH_SPECIFIED_SOURCE ( 'ANY', '', #97, .NOT_KNOWN. ) ;
#89 = CARTESIAN_POINT ( 'NONE',  ( -15.00000000000000711, 15.00000000000000178, 0.000000000000000000 ) ) ;
#90 =( NAMED_UNIT ( * ) PLANE_ANGLE_UNIT ( ) SI_UNIT ( $, .RADIAN. ) );
#91 = EDGE_LOOP ( 'NONE', ( #49, #206, #37, #251 ) ) ;
#92 = FACE_OUTER_BOUND ( 'NONE', #170, .T. ) ;
#93 =( NAMED_UNIT ( * ) SI_UNIT ( $, .STERADIAN. ) SOLID_ANGLE_UNIT ( ) );
#94 = VECTOR ( 'NONE', #264, 1000.000000000000000 ) ;
#95 = EDGE_CURVE ( 'NONE', #78, #2, #259, .T. ) ;
#96 = FILL_AREA_STYLE_COLOUR ( '', #226 ) ;
#97 = PRODUCT ( 'block_green_3by3', 'block_green_3by3', '', ( #84 ) ) ;
#98 = PRESENTATION_LAYER_ASSIGNMENT (  '', '', ( #75 ) ) ;
#99 = UNCERTAINTY_MEASURE_WITH_UNIT (LENGTH_MEASURE( 1.000000000000000082E-05 ), #271, 'distance_accuracy_value', 'NONE');
#100 =( GEOMETRIC_REPRESENTATION_CONTEXT ( 3 ) GLOBAL_UNCERTAINTY_ASSIGNED_CONTEXT ( ( #141 ) ) GLOBAL_UNIT_ASSIGNED_CONTEXT ( ( #124, #288, #93 ) ) REPRESENTATION_CONTEXT ( 'NONE', 'WORKASPACE' ) );
#101 = VECTOR ( 'NONE', #201, 1000.000000000000000 ) ;
#102 = ADVANCED_FACE ( 'NONE', ( #140 ), #15, .F. ) ;
#103 = PRESENTATION_LAYER_ASSIGNMENT (  '', '', ( #229 ) ) ;
#104 = ADVANCED_BREP_SHAPE_REPRESENTATION ( 'block_green_3by3', ( #168, #150 ), #187 ) ;
#105 = DIRECTION ( 'NONE',  ( -0.000000000000000000, -0.000000000000000000, -1.000000000000000000 ) ) ;
#106 = ORIENTED_EDGE ( 'NONE', *, *, #39, .T. ) ;
#107 = SURFACE_STYLE_FILL_AREA ( #24 ) ;
#108 = SURFACE_STYLE_FILL_AREA ( #32 ) ;
#109 =( NAMED_UNIT ( * ) SI_UNIT ( $, .STERADIAN. ) SOLID_ANGLE_UNIT ( ) );
#110 = EDGE_LOOP ( 'NONE', ( #193, #275, #54, #130 ) ) ;
#111 = DIRECTION ( 'NONE',  ( 1.000000000000000000, 0.000000000000000000, 0.000000000000000000 ) ) ;
#112 = APPLICATION_PROTOCOL_DEFINITION ( 'draft international standard', 'automotive_design', 1998, #60 ) ;
#113 = FILL_AREA_STYLE_COLOUR ( '', #142 ) ;
#114 = CARTESIAN_POINT ( 'NONE',  ( 14.99999999999998934, 15.00000000000000178, 30.00000000000000000 ) ) ;
#115 =( LENGTH_UNIT ( ) NAMED_UNIT ( * ) SI_UNIT ( .MILLI., .METRE. ) );
#116 = CARTESIAN_POINT ( 'NONE',  ( 14.99999999999998934, 15.00000000000000178, 30.00000000000000000 ) ) ;
#117 = ADVANCED_FACE ( 'NONE', ( #281 ), #17, .F. ) ;
#118 = FILL_AREA_STYLE_COLOUR ( '', #243 ) ;
#119 = AXIS2_PLACEMENT_3D ( 'NONE', #157, #131, #25 ) ;
#120 = ORIENTED_EDGE ( 'NONE', *, *, #69, .T. ) ;
#121 = CARTESIAN_POINT ( 'NONE',  ( -15.00000000000000355, -14.99999999999999822, 0.000000000000000000 ) ) ;
#122 = SURFACE_SIDE_STYLE ('',( #143 ) ) ;
#123 =( NAMED_UNIT ( * ) SI_UNIT ( $, .STERADIAN. ) SOLID_ANGLE_UNIT ( ) );
#124 =( LENGTH_UNIT ( ) NAMED_UNIT ( * ) SI_UNIT ( .MILLI., .METRE. ) );
#125 = MECHANICAL_DESIGN_GEOMETRIC_PRESENTATION_REPRESENTATION (  '', ( #287 ), #203 ) ;
#126 = EDGE_CURVE ( 'NONE', #26, #283, #224, .T. ) ;
#127 = MECHANICAL_DESIGN_GEOMETRIC_PRESENTATION_REPRESENTATION (  '', ( #292 ), #46 ) ;
#128 = ADVANCED_FACE ( 'NONE', ( #38 ), #77, .F. ) ;
#129 = MECHANICAL_DESIGN_GEOMETRIC_PRESENTATION_REPRESENTATION (  '', ( #22 ), #19 ) ;
#130 = ORIENTED_EDGE ( 'NONE', *, *, #146, .T. ) ;
#131 = DIRECTION ( 'NONE',  ( 1.000000000000000000, 1.156482317317871478E-16, -0.000000000000000000 ) ) ;
#132 = DIRECTION ( 'NONE',  ( 0.000000000000000000, 0.000000000000000000, 1.000000000000000000 ) ) ;
#133 = PRODUCT_RELATED_PRODUCT_CATEGORY ( 'part', '', ( #97 ) ) ;
#134 = ORIENTED_EDGE ( 'NONE', *, *, #80, .T. ) ;
#135 = PLANE ( 'NONE',  #33 ) ;
#136 =( LENGTH_UNIT ( ) NAMED_UNIT ( * ) SI_UNIT ( .MILLI., .METRE. ) );
#137 = FILL_AREA_STYLE ('',( #113 ) ) ;
#138 = PRESENTATION_STYLE_ASSIGNMENT (( #216 ) ) ;
#139 = PRESENTATION_STYLE_ASSIGNMENT (( #190 ) ) ;
#140 = FACE_OUTER_BOUND ( 'NONE', #91, .T. ) ;
#141 = UNCERTAINTY_MEASURE_WITH_UNIT (LENGTH_MEASURE( 1.000000000000000082E-05 ), #124, 'distance_accuracy_value', 'NONE');
#142 = COLOUR_RGB ( '',0.000000000000000000, 1.000000000000000000, 0.000000000000000000 ) ;
#143 = SURFACE_STYLE_FILL_AREA ( #66 ) ;
#144 = SURFACE_STYLE_FILL_AREA ( #166 ) ;
#145 = PRESENTATION_STYLE_ASSIGNMENT (( #222 ) ) ;
#146 = EDGE_CURVE ( 'NONE', #189, #78, #212, .T. ) ;
#147 = VECTOR ( 'NONE', #241, 1000.000000000000000 ) ;
#148 = COLOUR_RGB ( '',0.000000000000000000, 1.000000000000000000, 0.000000000000000000 ) ;
#149 = VECTOR ( 'NONE', #105, 1000.000000000000000 ) ;
#150 = AXIS2_PLACEMENT_3D ( 'NONE', #52, #132, #154 ) ;
#151 = PRESENTATION_LAYER_ASSIGNMENT (  '', '', ( #287 ) ) ;
#152 = ORIENTED_EDGE ( 'NONE', *, *, #227, .T. ) ;
#153 = LINE ( 'NONE', #180, #57 ) ;
#154 = DIRECTION ( 'NONE',  ( 1.000000000000000000, 0.000000000000000000, 0.000000000000000000 ) ) ;
#155 = CARTESIAN_POINT ( 'NONE',  ( -15.00000000000000355, -14.99999999999999822, 0.000000000000000000 ) ) ;
#156 = SURFACE_STYLE_USAGE ( .BOTH. , #274 ) ;
#157 = CARTESIAN_POINT ( 'NONE',  ( -15.00000000000000711, 15.00000000000000178, 30.00000000000000000 ) ) ;
#158 = SURFACE_SIDE_STYLE ('',( #144 ) ) ;
#159 = DIRECTION ( 'NONE',  ( -1.000000000000000000, -1.156482317317871478E-16, 0.000000000000000000 ) ) ;
#160 = MECHANICAL_DESIGN_GEOMETRIC_PRESENTATION_REPRESENTATION (  '', ( #233 ), #100 ) ;
#161 =( GEOMETRIC_REPRESENTATION_CONTEXT ( 3 ) GLOBAL_UNCERTAINTY_ASSIGNED_CONTEXT ( ( #286 ) ) GLOBAL_UNIT_ASSIGNED_CONTEXT ( ( #253, #269, #214 ) ) REPRESENTATION_CONTEXT ( 'NONE', 'WORKASPACE' ) );
#162 = SURFACE_STYLE_FILL_AREA ( #59 ) ;
#163 = PLANE ( 'NONE',  #265 ) ;
#164 = FILL_AREA_STYLE_COLOUR ( '', #45 ) ;
#165 = VERTEX_POINT ( 'NONE', #208 ) ;
#166 = FILL_AREA_STYLE ('',( #65 ) ) ;
#167 =( GEOMETRIC_REPRESENTATION_CONTEXT ( 3 ) GLOBAL_UNCERTAINTY_ASSIGNED_CONTEXT ( ( #40 ) ) GLOBAL_UNIT_ASSIGNED_CONTEXT ( ( #136, #232, #109 ) ) REPRESENTATION_CONTEXT ( 'NONE', 'WORKASPACE' ) );
#168 = MANIFOLD_SOLID_BREP ( '보스-돌출1', #220 ) ;
#169 = VERTEX_POINT ( 'NONE', #277 ) ;
#170 = EDGE_LOOP ( 'NONE', ( #8, #195, #72, #134 ) ) ;
#171 = SURFACE_STYLE_FILL_AREA ( #192 ) ;
#172 = FACE_OUTER_BOUND ( 'NONE', #200, .T. ) ;
#173 =( NAMED_UNIT ( * ) SI_UNIT ( $, .STERADIAN. ) SOLID_ANGLE_UNIT ( ) );
#174 = PRESENTATION_STYLE_ASSIGNMENT (( #156 ) ) ;
#175 = EDGE_CURVE ( 'NONE', #169, #78, #188, .T. ) ;
#176 = CARTESIAN_POINT ( 'NONE',  ( -15.00000000000000355, -14.99999999999999822, 30.00000000000000000 ) ) ;
#177 = COLOUR_RGB ( '',0.7921568627450980005, 0.8196078431372548767, 0.9333333333333333481 ) ;
#178 = DIRECTION ( 'NONE',  ( 1.156482317317871478E-16, -1.000000000000000000, 0.000000000000000000 ) ) ;
#179 = LINE ( 'NONE', #31, #94 ) ;
#180 = CARTESIAN_POINT ( 'NONE',  ( 14.99999999999998934, 15.00000000000000178, 0.000000000000000000 ) ) ;
#181 =( NAMED_UNIT ( * ) PLANE_ANGLE_UNIT ( ) SI_UNIT ( $, .RADIAN. ) );
#182 = UNCERTAINTY_MEASURE_WITH_UNIT (LENGTH_MEASURE( 1.000000000000000082E-05 ), #282, 'distance_accuracy_value', 'NONE');
#183 = CARTESIAN_POINT ( 'NONE',  ( -15.00000000000000355, -14.99999999999999822, 30.00000000000000000 ) ) ;
#184 = ORIENTED_EDGE ( 'NONE', *, *, #146, .F. ) ;
#185 = EDGE_CURVE ( 'NONE', #165, #169, #153, .T. ) ;
#186 = STYLED_ITEM ( 'NONE', ( #6 ), #128 ) ;
#187 =( GEOMETRIC_REPRESENTATION_CONTEXT ( 3 ) GLOBAL_UNCERTAINTY_ASSIGNED_CONTEXT ( ( #262 ) ) GLOBAL_UNIT_ASSIGNED_CONTEXT ( ( #12, #29, #250 ) ) REPRESENTATION_CONTEXT ( 'NONE', 'WORKASPACE' ) );
#188 = LINE ( 'NONE', #207, #280 ) ;
#189 = VERTEX_POINT ( 'NONE', #249 ) ;
#190 = SURFACE_STYLE_USAGE ( .BOTH. , #81 ) ;
#191 = SURFACE_SIDE_STYLE ('',( #162 ) ) ;
#192 = FILL_AREA_STYLE ('',( #73 ) ) ;
#193 = ORIENTED_EDGE ( 'NONE', *, *, #95, .T. ) ;
#194 = LINE ( 'NONE', #114, #20 ) ;
#195 = ORIENTED_EDGE ( 'NONE', *, *, #227, .F. ) ;
#196 = CARTESIAN_POINT ( 'NONE',  ( -15.00000000000000355, -14.99999999999999822, 30.00000000000000000 ) ) ;
#197 =( NAMED_UNIT ( * ) PLANE_ANGLE_UNIT ( ) SI_UNIT ( $, .RADIAN. ) );
#198 = DIRECTION ( 'NONE',  ( 1.156482317317871478E-16, -1.000000000000000000, 0.000000000000000000 ) ) ;
#199 = DIRECTION ( 'NONE',  ( 0.000000000000000000, 1.000000000000000000, 0.000000000000000000 ) ) ;
#200 = EDGE_LOOP ( 'NONE', ( #106, #242, #273, #120 ) ) ;
#201 = DIRECTION ( 'NONE',  ( 1.000000000000000000, 0.000000000000000000, 0.000000000000000000 ) ) ;
#202 = DIRECTION ( 'NONE',  ( 0.000000000000000000, -1.000000000000000000, 0.000000000000000000 ) ) ;
#203 =( GEOMETRIC_REPRESENTATION_CONTEXT ( 3 ) GLOBAL_UNCERTAINTY_ASSIGNED_CONTEXT ( ( #63 ) ) GLOBAL_UNIT_ASSIGNED_CONTEXT ( ( #215, #181, #239 ) ) REPRESENTATION_CONTEXT ( 'NONE', 'WORKASPACE' ) );
#204 = MECHANICAL_DESIGN_GEOMETRIC_PRESENTATION_REPRESENTATION (  '', ( #289 ), #28 ) ;
#205 = MECHANICAL_DESIGN_GEOMETRIC_PRESENTATION_REPRESENTATION (  '', ( #186 ), #167 ) ;
#206 = ORIENTED_EDGE ( 'NONE', *, *, #39, .F. ) ;
#207 = CARTESIAN_POINT ( 'NONE',  ( -15.00000000000000711, 15.00000000000000178, 0.000000000000000000 ) ) ;
#208 = CARTESIAN_POINT ( 'NONE',  ( 14.99999999999999289, -14.99999999999999822, 0.000000000000000000 ) ) ;
#209 = VECTOR ( 'NONE', #14, 1000.000000000000000 ) ;
#210 = ORIENTED_EDGE ( 'NONE', *, *, #64, .T. ) ;
#211 = CARTESIAN_POINT ( 'NONE',  ( 0.000000000000000000, 0.000000000000000000, 30.00000000000000000 ) ) ;
#212 = LINE ( 'NONE', #1, #149 ) ;
#213 = SURFACE_SIDE_STYLE ('',( #82 ) ) ;
#214 =( NAMED_UNIT ( * ) SI_UNIT ( $, .STERADIAN. ) SOLID_ANGLE_UNIT ( ) );
#215 =( LENGTH_UNIT ( ) NAMED_UNIT ( * ) SI_UNIT ( .MILLI., .METRE. ) );
#216 = SURFACE_STYLE_USAGE ( .BOTH. , #158 ) ;
#217 = CARTESIAN_POINT ( 'NONE',  ( -15.00000000000000711, 15.00000000000000178, 30.00000000000000000 ) ) ;
#218 = PRESENTATION_STYLE_ASSIGNMENT (( #61 ) ) ;
#219 = VECTOR ( 'NONE', #284, 1000.000000000000000 ) ;
#220 = CLOSED_SHELL ( 'NONE', ( #43, #117, #128, #4, #225, #102 ) ) ;
#221 = LINE ( 'NONE', #223, #219 ) ;
#222 = SURFACE_STYLE_USAGE ( .BOTH. , #122 ) ;
#223 = CARTESIAN_POINT ( 'NONE',  ( -15.00000000000000355, -14.99999999999999822, 30.00000000000000000 ) ) ;
#224 = LINE ( 'NONE', #260, #147 ) ;
#225 = ADVANCED_FACE ( 'NONE', ( #53 ), #135, .T. ) ;
#226 = COLOUR_RGB ( '',0.000000000000000000, 1.000000000000000000, 0.000000000000000000 ) ;
#227 = EDGE_CURVE ( 'NONE', #283, #169, #194, .T. ) ;
#228 =( GEOMETRIC_REPRESENTATION_CONTEXT ( 3 ) GLOBAL_UNCERTAINTY_ASSIGNED_CONTEXT ( ( #182 ) ) GLOBAL_UNIT_ASSIGNED_CONTEXT ( ( #282, #90, #123 ) ) REPRESENTATION_CONTEXT ( 'NONE', 'WORKASPACE' ) );
#229 = STYLED_ITEM ( 'NONE', ( #174 ), #225 ) ;
#230 = EDGE_LOOP ( 'NONE', ( #11, #184, #23, #152 ) ) ;
#231 =( NAMED_UNIT ( * ) SI_UNIT ( $, .STERADIAN. ) SOLID_ANGLE_UNIT ( ) );
#232 =( NAMED_UNIT ( * ) PLANE_ANGLE_UNIT ( ) SI_UNIT ( $, .RADIAN. ) );
#233 = STYLED_ITEM ( 'NONE', ( #145 ), #117 ) ;
#234 = VERTEX_POINT ( 'NONE', #176 ) ;
#235 = DIRECTION ( 'NONE',  ( 1.156482317317871478E-16, -1.000000000000000000, 0.000000000000000000 ) ) ;
#236 = COLOUR_RGB ( '',0.000000000000000000, 1.000000000000000000, 0.000000000000000000 ) ;
#237 = VECTOR ( 'NONE', #198, 1000.000000000000000 ) ;
#238 =( NAMED_UNIT ( * ) SI_UNIT ( $, .STERADIAN. ) SOLID_ANGLE_UNIT ( ) );
#239 =( NAMED_UNIT ( * ) SI_UNIT ( $, .STERADIAN. ) SOLID_ANGLE_UNIT ( ) );
#240 = DIRECTION ( 'NONE',  ( 0.000000000000000000, -0.000000000000000000, 1.000000000000000000 ) ) ;
#241 = DIRECTION ( 'NONE',  ( -1.156482317317871478E-16, 1.000000000000000000, -0.000000000000000000 ) ) ;
#242 = ORIENTED_EDGE ( 'NONE', *, *, #80, .F. ) ;
#243 = COLOUR_RGB ( '',0.000000000000000000, 1.000000000000000000, 0.000000000000000000 ) ;
#244 = UNCERTAINTY_MEASURE_WITH_UNIT (LENGTH_MEASURE( 1.000000000000000082E-05 ), #79, 'distance_accuracy_value', 'NONE');
#245 = EDGE_LOOP ( 'NONE', ( #270, #210, #30, #261 ) ) ;
#246 = SURFACE_SIDE_STYLE ('',( #171 ) ) ;
#247 = MECHANICAL_DESIGN_GEOMETRIC_PRESENTATION_REPRESENTATION (  '', ( #75 ), #228 ) ;
#248 = PRESENTATION_STYLE_ASSIGNMENT (( #74 ) ) ;
#249 = CARTESIAN_POINT ( 'NONE',  ( -15.00000000000000711, 15.00000000000000178, 30.00000000000000000 ) ) ;
#250 =( NAMED_UNIT ( * ) SI_UNIT ( $, .STERADIAN. ) SOLID_ANGLE_UNIT ( ) );
#251 = ORIENTED_EDGE ( 'NONE', *, *, #175, .F. ) ;
#252 = CARTESIAN_POINT ( 'NONE',  ( -15.00000000000000711, 15.00000000000000178, 30.00000000000000000 ) ) ;
#253 =( LENGTH_UNIT ( ) NAMED_UNIT ( * ) SI_UNIT ( .MILLI., .METRE. ) );
#254 = AXIS2_PLACEMENT_3D ( 'NONE', #285, #202, #42 ) ;
#255 =( NAMED_UNIT ( * ) PLANE_ANGLE_UNIT ( ) SI_UNIT ( $, .RADIAN. ) );
#256 = LINE ( 'NONE', #217, #237 ) ;
#257 = PRESENTATION_LAYER_ASSIGNMENT (  '', '', ( #186 ) ) ;
#258 = FILL_AREA_STYLE ('',( #118 ) ) ;
#259 = LINE ( 'NONE', #89, #263 ) ;
#260 = CARTESIAN_POINT ( 'NONE',  ( 14.99999999999998934, 15.00000000000000178, 30.00000000000000000 ) ) ;
#261 = ORIENTED_EDGE ( 'NONE', *, *, #18, .T. ) ;
#262 = UNCERTAINTY_MEASURE_WITH_UNIT (LENGTH_MEASURE( 1.000000000000000082E-05 ), #12, 'distance_accuracy_value', 'NONE');
#263 = VECTOR ( 'NONE', #178, 1000.000000000000000 ) ;
#264 = DIRECTION ( 'NONE',  ( -0.000000000000000000, -0.000000000000000000, -1.000000000000000000 ) ) ;
#265 = AXIS2_PLACEMENT_3D ( 'NONE', #183, #199, #240 ) ;
#266 = EDGE_CURVE ( 'NONE', #189, #234, #256, .T. ) ;
#267 = AXIS2_PLACEMENT_3D ( 'NONE', #13, #85, #34 ) ;
#268 = PRESENTATION_LAYER_ASSIGNMENT (  '', '', ( #292 ) ) ;
#269 =( NAMED_UNIT ( * ) PLANE_ANGLE_UNIT ( ) SI_UNIT ( $, .RADIAN. ) );
#270 = ORIENTED_EDGE ( 'NONE', *, *, #126, .T. ) ;
#271 =( LENGTH_UNIT ( ) NAMED_UNIT ( * ) SI_UNIT ( .MILLI., .METRE. ) );
#272 = SURFACE_STYLE_USAGE ( .BOTH. , #191 ) ;
#273 = ORIENTED_EDGE ( 'NONE', *, *, #18, .F. ) ;
#274 = SURFACE_SIDE_STYLE ('',( #108 ) ) ;
#275 = ORIENTED_EDGE ( 'NONE', *, *, #69, .F. ) ;
#276 = LINE ( 'NONE', #196, #209 ) ;
#277 = CARTESIAN_POINT ( 'NONE',  ( 14.99999999999998934, 15.00000000000000178, 0.000000000000000000 ) ) ;
#278 = SURFACE_STYLE_FILL_AREA ( #258 ) ;
#279 = CARTESIAN_POINT ( 'NONE',  ( -15.00000000000000711, 15.00000000000000178, 0.000000000000000000 ) ) ;
#280 = VECTOR ( 'NONE', #76, 1000.000000000000000 ) ;
#281 = FACE_OUTER_BOUND ( 'NONE', #230, .T. ) ;
#282 =( LENGTH_UNIT ( ) NAMED_UNIT ( * ) SI_UNIT ( .MILLI., .METRE. ) );
#283 = VERTEX_POINT ( 'NONE', #116 ) ;
#284 = DIRECTION ( 'NONE',  ( 1.000000000000000000, 0.000000000000000000, 0.000000000000000000 ) ) ;
#285 = CARTESIAN_POINT ( 'NONE',  ( -15.00000000000000711, 15.00000000000000178, 30.00000000000000000 ) ) ;
#286 = UNCERTAINTY_MEASURE_WITH_UNIT (LENGTH_MEASURE( 1.000000000000000082E-05 ), #253, 'distance_accuracy_value', 'NONE');
#287 = STYLED_ITEM ( 'NONE', ( #218 ), #102 ) ;
#288 =( NAMED_UNIT ( * ) PLANE_ANGLE_UNIT ( ) SI_UNIT ( $, .RADIAN. ) );
#289 = STYLED_ITEM ( 'NONE', ( #138 ), #43 ) ;
#290 = PRODUCT_DEFINITION_SHAPE ( 'NONE', 'NONE',  #67 ) ;
#291 = MECHANICAL_DESIGN_GEOMETRIC_PRESENTATION_REPRESENTATION (  '', ( #229 ), #161 ) ;
#292 = STYLED_ITEM ( 'NONE', ( #139 ), #104 ) ;
ENDSEC;
END-ISO-10303-21;
